<?xml version="1.0" standalone="no"?>
<!DOCTYPE svg PUBLIC "-//W3C//DTD SVG 20010904//EN"
 "http://www.w3.org/TR/2001/REC-SVG-20010904/DTD/svg10.dtd">
<svg version="1.0" xmlns="http://www.w3.org/2000/svg"
 width="265.000000pt" height="265.000000pt" viewBox="0 0 265.000000 265.000000"
 preserveAspectRatio="xMidYMid meet">
<metadata>
Created by potrace 1.14, written by Peter Selinger 2001-2017
</metadata>
<g transform="translate(0.000000,265.000000) scale(0.100000,-0.100000)"
fill="#000000" stroke="none">
<path d="M1450 2485 c-17 -25 -28 -45 -24 -45 3 0 1 -6 -5 -14 -7 -8 -14 -22
-16 -32 -2 -11 -12 -46 -21 -79 -19 -69 -20 -76 -30 -142 -3 -26 -8 -57 -11
-68 -4 -21 -15 -135 -16 -172 -1 -30 -5 -29 -53 15 -22 20 -64 57 -94 82 -29
25 -62 53 -72 63 -10 9 -23 17 -28 17 -5 0 -10 4 -10 10 0 5 -13 16 -29 25
-16 8 -35 20 -43 28 -20 20 -129 84 -193 113 -243 112 -210 -108 69 -450 l40
-48 -25 -19 c-13 -10 -20 -19 -15 -19 5 0 18 7 28 17 11 9 18 11 18 5 0 -7 7
-12 15 -12 8 0 15 -4 15 -10 0 -5 1 -13 3 -17 1 -4 -13 -8 -30 -9 -18 -1 -33
3 -33 7 0 5 -5 9 -11 9 -5 0 -7 -4 -4 -10 4 -6 -6 -10 -22 -11 -61 -2 -140 -8
-174 -13 -20 -3 -56 -8 -80 -11 -24 -2 -51 -6 -59 -8 -8 -2 -51 -12 -95 -21
-99 -22 -200 -69 -222 -102 -21 -33 -7 -65 45 -98 35 -22 130 -56 172 -61 8
-1 22 -5 30 -8 15 -6 59 -13 135 -23 22 -3 56 -7 75 -10 19 -3 62 -7 95 -10
33 -3 61 -7 63 -8 2 -3 -18 -26 -94 -108 -24 -26 -44 -49 -44 -51 0 -3 -15
-22 -32 -42 -101 -113 -218 -308 -237 -393 -8 -36 -6 -46 11 -68 18 -23 25
-25 66 -19 24 3 57 12 72 20 15 8 30 11 34 8 3 -4 6 -2 6 4 0 5 21 20 48 33
45 23 112 67 177 117 17 13 35 27 40 31 6 4 36 29 68 56 32 26 61 45 64 42 4
-4 8 -28 9 -54 4 -98 14 -228 19 -252 3 -14 8 -44 11 -66 17 -142 66 -291 112
-344 31 -37 81 -24 114 30 14 24 57 132 58 148 0 4 5 24 11 45 5 20 7 42 4 47
-3 6 -2 10 2 10 5 0 10 12 11 28 1 15 5 43 8 62 8 52 17 140 18 177 1 18 5 33
9 33 5 0 5 5 1 12 -4 7 -3 8 5 4 6 -4 9 -12 6 -17 -4 -5 1 -9 9 -9 8 0 28 -12
44 -28 47 -44 120 -106 182 -152 18 -14 39 -31 46 -37 7 -7 16 -13 19 -13 4 0
20 -11 37 -25 16 -14 36 -25 44 -25 8 0 14 -4 14 -8 0 -9 109 -65 159 -81 105
-34 140 13 98 129 -11 30 -26 62 -33 71 -8 9 -11 19 -7 22 3 4 1 7 -5 7 -7 0
-12 5 -12 11 0 15 -86 138 -168 241 -38 47 -72 89 -75 95 -3 5 19 9 51 9 31 1
98 4 147 8 146 12 143 12 235 31 14 3 38 8 55 11 56 10 180 55 212 77 18 12
37 34 42 49 9 24 6 31 -25 58 -19 16 -51 37 -71 45 -43 18 -174 52 -229 60
-22 3 -52 8 -69 11 -49 7 -138 16 -177 18 -61 3 -61 5 13 84 195 211 340 439
343 539 1 53 -11 65 -68 65 -88 0 -298 -128 -488 -297 l-28 -24 -5 22 c-2 12
-7 63 -10 112 -8 141 -19 230 -41 335 -9 41 -17 82 -19 90 -8 39 -57 146 -77
167 -36 38 -72 31 -108 -22z m113 -83 c18 -20 43 -76 51 -113 3 -13 8 -35 11
-49 8 -38 16 -81 21 -120 3 -19 7 -51 10 -70 4 -32 7 -67 18 -242 2 -32 0 -58
-5 -58 -9 0 -10 2 -14 60 -22 289 -63 447 -121 475 -41 19 -39 19 -64 -7 l-21
-23 7 30 c18 74 54 135 79 135 7 0 19 -8 28 -18z m-38 -138 c13 -6 34 -40 39
-64 1 -3 4 -9 7 -15 4 -5 9 -26 13 -45 3 -19 9 -46 12 -60 3 -14 7 -36 9 -50
1 -14 5 -43 9 -65 11 -78 17 -233 8 -239 -8 -5 -10 16 -17 154 -2 30 -4 55 -5
55 -2 0 -4 8 -13 55 -17 80 -47 115 -90 105 -25 -7 -64 -81 -74 -141 -6 -38
-22 -57 -18 -21 20 180 54 305 89 329 13 9 11 9 31 2z m-656 -46 c20 -11 48
-29 63 -39 14 -11 30 -19 34 -19 7 0 111 -79 145 -110 9 -8 33 -28 54 -45 74
-58 160 -143 153 -150 -4 -4 -20 5 -36 21 -72 72 -258 212 -322 243 -25 12
-64 24 -86 28 -35 4 -44 2 -57 -17 -8 -12 -14 -31 -12 -41 6 -33 -16 -10 -37
38 -25 58 -29 82 -17 104 12 23 63 18 118 -13z m178 -187 c117 -82 282 -225
271 -237 -4 -3 -24 10 -45 29 -95 90 -139 127 -155 133 -10 3 -18 9 -18 13 0
13 -105 42 -123 35 -27 -10 -32 -52 -12 -111 10 -29 21 -53 25 -53 4 0 10 -9
13 -21 5 -19 4 -19 -17 3 -13 13 -45 55 -71 93 -151 221 -94 271 132 116z
m481 30 c16 -10 40 -98 48 -176 8 -75 12 -168 7 -177 -2 -3 -17 7 -34 23 -17
16 -37 29 -45 29 -8 0 -14 5 -14 10 0 5 -3 9 -7 8 -5 -1 -21 2 -36 7 -27 7
-28 9 -23 59 6 54 24 117 49 176 22 51 30 57 55 41z m697 -112 c-12 -52 -60
-139 -117 -211 -21 -26 -38 -49 -38 -52 0 -7 -26 -39 -62 -77 -15 -16 -26 -29
-23 -29 3 0 -41 -49 -112 -122 -20 -21 -41 -38 -45 -38 -8 0 44 70 79 108 11
11 73 87 98 120 6 7 15 18 20 25 24 28 87 129 89 142 1 8 5 18 9 21 13 13 7
72 -9 88 -8 9 -24 16 -35 16 -10 0 -19 4 -19 8 0 10 66 43 100 49 13 2 27 6
29 9 2 2 13 -4 23 -13 13 -12 17 -25 13 -44z m-1143 -5 c24 -15 45 -31 46 -35
2 -5 8 -9 14 -9 5 0 15 -6 22 -12 7 -7 34 -32 60 -56 26 -24 44 -47 41 -53 -4
-5 -11 -7 -16 -4 -5 4 -9 1 -9 -5 0 -6 -4 -9 -8 -6 -4 2 -30 -13 -57 -34 -48
-38 -65 -42 -65 -15 0 7 -4 15 -8 17 -14 5 -76 98 -99 148 -50 105 -22 127 79
64z m1021 -54 c6 -22 -53 -144 -87 -184 -14 -16 -26 -32 -26 -35 0 -3 -14 -20
-30 -38 -17 -18 -30 -36 -30 -42 0 -5 -3 -11 -7 -13 -5 -1 -37 -36 -72 -75
-34 -40 -69 -73 -77 -73 -8 0 2 17 24 38 48 50 80 87 116 137 16 22 33 43 38
46 6 3 9 9 9 13 -1 3 5 19 12 34 12 23 14 43 8 81 -2 18 -48 20 -103 4 -32
-10 -58 -21 -58 -25 0 -4 -5 -8 -11 -8 -18 0 10 29 45 47 17 9 33 19 36 23 16
21 116 79 148 86 8 1 16 5 18 7 10 10 42 -6 47 -23z m-651 -130 c10 0 18 -5
18 -11 0 -5 4 -8 9 -5 11 7 90 -49 97 -69 6 -15 -17 -45 -35 -45 -6 0 -11 -4
-11 -9 0 -14 -43 -22 -51 -9 -4 6 -2 21 3 34 8 18 7 26 -5 39 -14 14 -18 13
-41 -12 -28 -30 -37 -21 -32 32 2 17 4 41 4 55 2 19 5 21 14 12 7 -7 20 -12
30 -12z m-139 -16 c13 -24 14 -64 1 -87 -9 -16 -11 -16 -22 8 -12 27 -31 32
-49 14 -18 -18 6 -62 30 -55 15 4 18 0 14 -15 -4 -17 -3 -18 9 -8 8 6 14 8 14
4 0 -4 -8 -13 -17 -20 -21 -15 -48 -8 -34 9 7 8 1 12 -21 13 -35 1 -81 32 -86
58 -5 25 81 93 111 87 4 -1 7 2 7 7 0 16 32 5 43 -15z m642 -4 c1 -29 -40 -99
-85 -148 -16 -18 -30 -36 -30 -38 0 -3 -28 -33 -62 -67 -61 -60 -65 -62 -115
-63 -29 0 -53 3 -53 7 0 3 21 24 46 47 28 25 43 45 39 52 -6 9 -10 9 -16 -1
-12 -20 -18 -8 -21 40 l-3 44 84 58 c47 32 87 58 90 57 19 -2 33 3 27 9 -9 9
52 32 79 30 14 -1 20 -9 20 -27z m-1062 -59 c-3 -11 -16 -17 -41 -17 -147 -2
-336 -47 -384 -91 -19 -17 -24 -68 -8 -78 17 -10 11 -25 -7 -19 -68 22 -114
47 -125 68 -9 16 -6 24 16 43 26 22 128 59 190 68 56 8 91 14 124 20 19 3 73
8 120 10 47 3 87 7 89 8 10 11 30 1 26 -12z m111 10 c23 -3 -8 -14 -49 -17
-32 -3 -45 0 -45 9 0 11 47 15 94 8z m40 -50 c3 -5 -17 -11 -44 -13 -28 -1
-50 1 -50 5 0 5 -5 5 -12 1 -6 -4 -9 -3 -5 2 7 12 104 16 111 5z m-125 -6 c-4
-3 -24 -8 -45 -11 -22 -3 -57 -7 -79 -10 -22 -3 -47 -6 -56 -8 -30 -4 -86 -44
-91 -64 -9 -34 58 -87 121 -97 8 -1 17 -8 19 -15 3 -8 0 -10 -7 -6 -6 4 -25 9
-42 11 -95 12 -120 17 -179 36 -110 34 -114 82 -11 115 61 20 62 20 171 38 83
13 208 21 199 11z m107 -114 c39 -39 68 -73 66 -76 -3 -3 1 -5 9 -5 8 0 23 -8
34 -16 20 -16 20 -16 -2 -10 -12 4 -45 9 -75 11 -29 2 -71 7 -93 10 -22 4 -49
8 -60 10 -60 8 -106 19 -155 37 -124 47 -93 84 93 112 45 7 89 9 97 5 8 -4 47
-39 86 -78z m43 76 c4 -9 -8 -77 -14 -77 -13 0 -75 74 -67 79 15 9 76 8 81 -2z
m80 -81 c-14 -15 -11 -46 6 -46 9 0 14 -9 13 -24 -2 -23 -3 -23 -44 13 -38 32
-42 40 -38 74 5 56 12 60 44 24 18 -20 25 -36 19 -41z m496 9 c4 -21 -36 -75
-55 -75 -5 0 -10 -5 -10 -11 0 -5 -4 -7 -10 -4 -15 9 -12 35 3 35 20 0 13 44
-7 48 -14 3 -10 11 21 38 37 33 38 34 46 11 5 -12 10 -31 12 -42z m-821 -93
c3 -5 -1 -9 -9 -9 -8 0 -12 4 -9 9 3 4 7 8 9 8 2 0 6 -4 9 -8z m76 -89 c0 -9
-18 -30 -147 -178 -10 -11 -27 -33 -37 -50 -11 -16 -24 -35 -30 -43 -6 -7 -16
-18 -21 -25 -21 -26 -69 -131 -70 -155 -1 -35 32 -74 56 -67 40 13 17 -13 -29
-33 -82 -35 -116 -36 -123 -2 -5 22 21 108 37 121 8 6 14 15 14 20 0 11 51 88
95 142 6 7 28 35 50 62 69 87 188 215 200 215 3 0 5 -3 5 -7z m210 -14 c0 -5
17 -25 38 -45 42 -40 46 -29 -43 -99 -21 -16 -50 -39 -64 -51 -44 -35 -111
-75 -111 -65 0 5 -10 8 -23 7 -16 -2 -23 2 -22 13 2 27 34 85 65 120 17 18 30
36 30 41 0 4 6 10 13 13 6 2 8 8 4 13 -5 5 -25 -10 -46 -34 -77 -88 -100 -170
-51 -182 23 -6 21 -8 -28 -34 -57 -29 -107 -32 -108 -6 -1 40 73 147 175 253
65 67 66 68 71 41 5 -29 38 -42 47 -18 3 8 9 11 15 8 5 -3 9 2 8 12 -1 11 -2
22 -1 26 1 10 31 -2 31 -13z m48 9 c5 -7 13 -24 17 -37 7 -24 7 -24 -19 4 -14
15 -26 32 -26 36 0 13 16 11 28 -3z m426 -18 c-33 -34 -40 -33 -23 4 7 15 20
26 31 26 17 0 16 -3 -8 -30z m69 10 c-3 -11 0 -27 7 -35 10 -12 16 -13 28 -3
13 10 14 10 8 1 -4 -7 -3 -13 1 -13 5 0 14 14 20 31 12 32 15 33 103 14 14 -3
34 -7 45 -9 108 -22 146 -36 172 -62 20 -20 16 -32 -17 -49 -16 -9 -30 -13
-30 -10 0 4 -6 3 -12 -2 -16 -10 -30 -12 -101 -19 -48 -5 -58 -3 -64 11 -8 24
-81 101 -87 94 -3 -3 10 -23 30 -44 62 -70 62 -70 -28 -72 l-80 -3 -49 48 -48
47 41 48 c44 50 70 61 61 27z m-724 -27 c-18 -21 -41 -44 -49 -53 -29 -29
-108 -135 -124 -168 -10 -18 -19 -46 -21 -62 -3 -25 1 -30 30 -40 40 -13 44
-13 125 27 l65 33 -32 -30 c-18 -17 -36 -30 -42 -30 -5 0 -11 -4 -13 -9 -1 -4
-23 -21 -48 -37 -126 -80 -177 -96 -196 -61 -10 18 -6 33 27 96 22 42 45 81
52 86 7 6 24 28 38 50 26 39 44 62 124 153 62 70 74 82 87 82 7 0 -4 -17 -23
-37z m126 17 c0 -7 -6 -15 -12 -17 -8 -3 -13 4 -13 17 0 13 5 20 13 18 6 -3
12 -11 12 -18z m235 -1 c0 -6 -4 -7 -10 -4 -5 3 -10 11 -10 16 0 6 5 7 10 4 6
-3 10 -11 10 -16z m407 6 c0 -8 -6 -16 -14 -19 -13 -5 -18 15 -6 27 11 11 20
8 20 -8z m329 1 c12 -2 37 -7 55 -10 101 -16 178 -58 166 -90 -3 -8 -24 -24
-45 -35 -36 -18 -62 -26 -127 -37 -11 -1 -29 -5 -41 -8 -12 -2 -45 -7 -75 -11
-30 -4 -66 -9 -81 -11 -16 -1 -28 1 -28 6 0 6 3 11 8 11 4 1 19 3 33 4 62 8
155 38 170 57 37 41 5 82 -91 118 l-55 20 45 -5 c25 -2 55 -7 66 -9z m326 -64
c30 -12 52 -46 44 -67 -3 -8 -27 -25 -54 -39 -47 -24 -61 -28 -137 -41 -16 -3
-56 -10 -88 -16 -31 -5 -90 -12 -130 -15 -39 -2 -84 -6 -100 -8 -28 -3 -45 8
-28 18 4 3 33 8 62 11 30 3 65 7 79 10 44 6 115 19 120 21 3 0 20 5 38 9 18 4
35 12 38 16 3 5 9 7 13 4 5 -2 22 9 39 25 34 32 36 72 4 97 -14 10 -8 10 28
-1 25 -7 57 -18 72 -24z m-859 -57 c-3 -9 -8 -14 -10 -11 -3 3 -2 9 2 15 9 16
15 13 8 -4z m-189 -16 c24 -11 25 -16 21 -75 -2 -35 -6 -68 -10 -74 -9 -14
-45 -13 -46 3 0 6 -3 21 -6 32 -2 11 -4 30 -4 42 0 12 -4 25 -10 29 -8 5 -10
-12 -5 -56 3 -34 8 -65 11 -68 2 -3 17 -6 32 -7 41 -2 37 -30 -5 -30 -18 0
-37 -7 -42 -14 -13 -22 7 -53 33 -49 14 2 23 -3 25 -15 2 -10 -2 -16 -8 -15
-21 5 -36 -29 -23 -51 15 -23 13 -35 -16 -93 -32 -68 -60 -64 -82 12 -17 60
-18 74 -25 220 l-6 125 31 24 c54 41 96 70 103 71 4 0 18 -5 32 -11z m166 3
c0 -4 15 -14 33 -21 36 -17 83 -62 92 -92 4 -10 10 -19 14 -19 9 0 69 -87 107
-156 14 -24 22 -44 18 -44 -4 0 -2 -6 3 -12 5 -7 9 -24 9 -38 -1 -21 -6 -24
-26 -22 -30 4 -113 53 -161 94 -19 17 -42 36 -52 43 -10 7 -19 22 -20 34 -1
11 -5 21 -9 21 -27 0 -62 19 -53 28 7 7 12 8 38 11 8 0 14 7 15 14 10 86 10
119 1 110 -6 -6 -12 -30 -14 -54 -2 -24 -4 -47 -4 -50 -1 -9 -51 -18 -52 -10
-4 28 -4 143 1 150 10 16 60 27 60 13z m360 -57 c-9 -11 -32 -15 -81 -15 -93
0 -95 14 -1 18 42 1 78 5 81 7 11 12 12 4 1 -10z m3 -52 c-3 -7 -9 -10 -14 -7
-6 3 -17 0 -26 -8 -12 -9 -15 -9 -9 0 5 9 -3 12 -28 12 -20 0 -36 3 -36 8 0 4
27 7 59 8 46 1 58 -2 54 -13z m-717 -90 c1 -89 12 -189 27 -233 6 -19 11 -38
12 -42 0 -14 35 -48 49 -48 30 0 46 13 70 61 15 27 26 52 26 56 0 19 12 43 21
43 6 0 8 -4 4 -9 -3 -5 -8 -31 -11 -57 -3 -27 -7 -51 -9 -55 -2 -3 -7 -19 -9
-35 -17 -91 -27 -124 -38 -124 -5 0 -7 -4 -4 -9 3 -4 -5 -18 -17 -30 l-23 -21
-22 20 c-12 12 -22 27 -22 35 0 8 -5 15 -11 15 -6 0 -9 6 -6 14 3 7 2 17 -3
22 -5 5 -14 41 -20 79 -6 39 -13 84 -17 100 -3 17 -5 47 -6 68 0 20 -4 37 -10
37 -5 0 -5 6 2 13 6 8 9 16 6 18 -4 4 -9 108 -6 137 0 6 5 12 9 12 4 0 8 -30
8 -67z m-45 5 c5 -114 8 -149 13 -186 4 -23 8 -63 11 -90 3 -26 9 -62 14 -80
5 -18 11 -36 12 -40 1 -4 5 -17 10 -30 5 -13 9 -27 9 -31 0 -16 54 -71 70 -71
10 0 30 10 46 22 26 21 27 21 20 3 -4 -11 -10 -32 -13 -47 -3 -16 -9 -28 -14
-28 -5 0 -9 -8 -9 -17 0 -22 -29 -53 -51 -53 -25 0 -59 52 -75 115 -2 6 -5 20
-8 32 -3 13 -9 33 -12 45 -3 13 -7 34 -9 48 -2 14 -7 41 -10 60 -6 41 -15 137
-20 235 -2 39 -4 75 -5 80 -5 23 1 55 10 55 6 0 10 -10 11 -22z m685 -73 c56
-74 114 -164 114 -179 0 -8 5 -18 10 -21 6 -3 10 -21 10 -40 0 -37 -20 -51
-51 -35 -10 6 -19 8 -19 5 0 -15 -111 56 -230 146 -102 77 -230 203 -177 173
12 -6 28 -21 94 -82 73 -67 213 -154 213 -131 0 4 6 6 14 3 24 -9 48 38 37 70
-6 14 -9 26 -6 26 2 0 -12 27 -31 61 -49 87 -43 88 22 4z m-446 30 c0 -8 -5
-17 -12 -21 -7 -5 -8 -3 -3 7 7 11 6 12 -6 2 -15 -12 -41 -4 -40 13 0 10 42
23 54 17 4 -2 7 -10 7 -18z m132 -71 c6 -13 16 -24 23 -24 9 0 179 -129 195
-149 3 -3 16 -12 29 -19 118 -67 160 -82 191 -68 32 13 41 26 36 48 -9 37 13
26 34 -16 35 -72 41 -104 24 -121 -9 -8 -24 -15 -35 -15 -23 0 -147 57 -167
77 -8 7 -23 18 -35 25 -67 36 -347 280 -347 303 0 14 42 -18 52 -41z m-142 -8
c0 -11 -19 -15 -25 -6 -3 5 1 10 9 10 9 0 16 -2 16 -4z m27 -11 c0 -8 -4 -12
-9 -9 -5 3 -6 10 -3 15 9 13 12 11 12 -6z"/>
<path d="M1760 1609 c-55 -60 -68 -79 -54 -79 8 0 93 92 94 102 0 4 7 14 16
22 8 9 12 16 7 16 -4 0 -33 -27 -63 -61z"/>
</g>
</svg>
